<svg width="32" height="35" viewBox="0 0 32 35" fill="none" xmlns="http://www.w3.org/2000/svg">
<path d="M11.0525 12.7012C12.1661 13.9919 12.7878 15.7113 12.7878 17.5C12.7878 19.2887 12.1661 21.0081 11.0525 22.2988" stroke="black" stroke-width="2" stroke-linecap="round" stroke-linejoin="round"/>
<path d="M15.2323 8.06641C17.4461 10.5894 18.6853 13.9749 18.6853 17.5C18.6853 21.0251 17.4461 24.4106 15.2323 26.9336" stroke="black" stroke-width="2" stroke-linecap="round" stroke-linejoin="round"/>
<path d="M19.4005 3.43188C22.7236 7.18188 24.5864 12.2354 24.5864 17.5002C24.5864 22.7651 22.7236 27.8186 19.4005 31.5686" stroke="black" stroke-width="2" stroke-linecap="round" stroke-linejoin="round"/>
<path d="M5.40925 17.5002C5.40925 18.4063 6.06977 19.1409 6.88456 19.1409C7.69935 19.1409 8.35986 18.4063 8.35986 17.5002C8.35986 16.5942 7.69935 15.8596 6.88456 15.8596C6.06977 15.8596 5.40925 16.5942 5.40925 17.5002Z" fill="black"/>
</svg>
