<svg width="34" height="35" viewBox="0 0 34 35" fill="none" xmlns="http://www.w3.org/2000/svg">
<path d="M33.2341 30.3758C33.068 30.2772 32.892 30.1888 32.7105 30.121C32.3263 29.9774 32.0623 29.7161 31.9659 29.3425C31.825 28.7946 31.3847 28.5527 30.9075 28.4926C29.9899 28.3772 29.4171 27.7891 28.9281 27.1731C28.5633 26.7134 28.4255 26.0823 28.6517 25.4649C28.7038 25.3223 28.708 25.2074 28.6484 25.0408C28.5736 24.8324 28.6569 24.5679 28.6843 24.3289C28.9531 21.9843 29.9121 19.8888 31.184 17.9068C31.3042 17.7195 31.4244 17.5324 31.5458 17.3461C31.8577 16.8669 31.9861 16.3495 32.0595 15.7814C32.2145 14.5798 32.2612 13.3613 32.6406 12.1876C33.0329 10.9744 33.0045 9.7379 32.775 8.48864C32.6566 7.84333 32.6836 7.17421 32.6142 6.51882C32.4556 5.01547 32.0913 3.56238 31.3303 2.22898C30.9912 1.63487 30.5953 1.06994 30.205 0.504412C30.0442 0.271414 29.854 0.0252747 29.4884 0.155091C29.2961 0.223388 29.0403 0.695278 29.056 0.951611C29.0605 1.02421 29.0979 1.09775 29.09 1.1677C29.0733 1.31484 29.0371 1.45986 29.0081 1.60576C28.9651 1.82427 28.9084 2.04141 28.8818 2.26162C28.8571 2.46528 28.8633 2.67276 28.8578 2.87853C28.8516 3.11872 28.8334 3.35961 28.8461 3.59886C28.8671 3.99603 28.894 4.37664 28.688 4.75961C28.5769 4.96662 28.6391 5.25466 28.5893 5.49962C28.5367 5.75807 28.4379 6.00739 28.3694 6.26296C28.2661 6.6467 28.1524 7.02919 28.0779 7.41841C27.9477 8.09566 27.8649 8.78187 27.7238 9.45694C27.5394 10.3385 27.3121 11.2118 27.1146 12.091C27.03 12.4673 26.9814 12.851 26.9019 13.2285C26.8745 13.3586 26.7974 13.4783 26.7526 13.6057C26.6755 13.8252 26.6047 14.0466 26.5349 14.2683C26.5227 14.3072 26.5403 14.3573 26.5232 14.3926C26.297 14.8537 26.0661 15.3124 25.8385 15.7728C25.7148 16.0228 25.5941 16.2746 25.4744 16.5263C25.452 16.5735 25.4452 16.6276 25.4223 16.6745C24.9401 17.6534 24.4259 18.6195 23.9813 19.6141C23.4906 20.7119 23.1582 21.8532 23.0122 23.0541C22.863 24.2779 22.6142 25.4912 22.3773 26.7035C22.3045 27.0759 22.1369 27.4329 21.9938 27.7897C21.9015 28.0201 21.5629 28.1429 21.2992 28.0835C19.9019 27.7691 18.4997 27.4291 17.059 27.4531C16.1963 27.4676 15.3383 27.6748 14.4758 27.7782C11.8661 28.0908 9.25691 28.4067 6.64476 28.6983C4.80437 28.9039 2.96018 28.9421 1.11948 28.6767C1.02298 28.6627 0.925013 28.6574 0.82723 28.6548C0.799056 28.6541 0.770149 28.6762 0.670166 28.7174C0.810301 28.8128 0.8958 28.9104 1.00031 28.9359C1.46209 29.0477 1.9279 29.1462 2.39518 29.2352C2.78637 29.3098 3.19009 29.3345 3.57383 29.4338C4.45699 29.6627 5.33472 29.5718 6.22112 29.4728C6.96091 29.3901 7.70522 29.3244 8.44904 29.3054C8.73078 29.2982 9.01258 29.4685 9.30158 29.5112C9.61602 29.5579 9.93888 29.5571 10.2583 29.565C10.6231 29.5742 10.9884 29.5679 11.3532 29.572C11.7434 29.5766 12.1416 29.5391 12.5216 29.6028C13.137 29.7062 13.7409 29.8754 14.3486 30.0201C14.9547 30.1646 15.5592 30.3165 16.1661 30.4591C16.5942 30.5598 17.0248 30.6519 17.4552 30.7431C17.5163 30.756 17.5951 30.7644 17.6459 30.7388C17.8811 30.6192 18.011 30.7025 18.0643 30.9662C18.3371 30.8865 18.5833 30.8147 18.8295 30.7428C18.8486 30.7705 18.8677 30.7981 18.8867 30.8257C17.8427 31.5011 16.8174 32.2055 15.7494 32.8436C14.6743 33.4858 13.4467 33.7671 12.205 33.9907C12.2107 34.0407 12.2165 34.0907 12.2222 34.1409C12.4993 34.1809 12.7885 34.2905 13.0506 34.247C13.6934 34.1402 14.3232 33.9618 14.9588 33.8145C15.0857 33.7851 15.1922 33.726 15.3201 33.8825C15.3892 33.9671 15.6246 33.9512 15.7814 33.9385C16.1706 33.9067 16.5566 33.8366 16.9458 33.8098C17.1905 33.793 17.439 33.8271 17.6859 33.837C17.7821 33.8408 17.9018 33.8776 17.9716 33.837C18.5514 33.4978 19.1972 33.6249 19.8093 33.6171C20.7955 33.6043 21.7849 33.6577 22.7696 33.7257C23.7309 33.7921 24.6382 33.6274 25.5141 33.2638C26.6833 32.7785 27.8774 32.3774 29.1229 32.1026C29.8211 31.9485 30.5232 31.7807 31.1267 31.3316C31.667 30.9296 32.3123 30.9204 32.9571 31.1474C33.2778 31.2604 33.6074 31.3499 34.0001 31.4705C33.8942 30.9499 33.6361 30.6138 33.2341 30.3758Z" fill="#F0F0F0"/>
</svg>
